<?xml version="1.0" encoding="utf-8"?>
<svg version="1.1" id="Layer_1" x="0px" y="0px" width="100%" viewBox="0 0 154.181 125.236" enable-background="new 0 0 128 128" xmlns="http://www.w3.org/2000/svg">
  <defs/>
  <path fill="#9D9D9D" opacity="1.000000" stroke="none" d="M 128.418 25.709 C 128.418 55.063 128.418 84.418 128.194 113.899 C 122.372 120.806 115.418 124.144 106.385 122.245 C 103.551 118.877 99.607 116.222 98.423 112.645 C 96.365 106.427 92.451 105.621 87.031 105.657 C 66.984 105.791 46.936 105.707 26.879 105.237 C 26.88 78.48 26.89 52.191 27.357 25.834 C 32.759 25.709 37.703 25.65 43.03 25.647 C 47.489 27.303 51.557 27.88 55.779 25.879 C 59.303 29.573 62.545 33.085 66.058 36.297 C 66.856 37.028 68.593 36.726 69.898 36.898 C 69.545 35.753 69.458 34.409 68.788 33.499 C 66.864 30.888 64.703 28.455 63.096 25.847 C 85.178 25.733 106.798 25.721 128.418 25.709 M 84.073 79.756 C 74.993 79.771 65.912 79.691 56.837 79.911 C 55.605 79.941 54.408 81.478 53.195 82.316 C 54.148 83.065 55.093 84.455 56.055 84.466 C 68.432 84.614 80.812 84.615 93.189 84.472 C 94.161 84.46 95.117 83.09 96.081 82.351 C 95.045 81.516 94.092 80.127 92.957 79.957 C 90.369 79.572 87.694 79.786 84.073 79.756 M 85.355 72.127 C 89.033 70.069 91.056 67.067 90.404 62.717 C 89.67 57.821 82.023 51.813 77.148 52.581 C 76.157 52.737 74.828 54.695 74.734 55.907 C 74.424 59.877 74.6 63.886 74.609 67.881 C 74.623 74.33 75.586 75.083 81.882 73.51 C 82.84 73.27 83.751 72.837 85.355 72.127 M 63.584 56.412 C 60.125 53.444 56.671 53.478 53.465 56.699 C 50.003 60.176 49.769 66.933 52.798 70.97 C 55.966 75.191 61.559 75.228 64.502 70.846 C 67.615 66.213 67.364 61.497 63.584 56.412 M 105.661 55.068 C 101.928 53.482 98.872 54.425 96.523 57.656 C 93.844 61.34 93.882 67.026 96.527 70.772 C 99.702 75.269 105.414 75.209 108.537 70.643 C 111.816 65.85 110.968 60.177 105.661 55.068 M 85.572 90.834 C 76.899 90.541 68.227 90.191 59.553 90.053 C 58.773 90.04 57.971 91.396 57.179 92.117 C 58.066 92.923 58.938 94.41 59.842 94.43 C 67.765 94.604 75.695 94.605 83.616 94.375 C 84.435 94.351 85.202 92.485 85.572 90.834 M 40.698 62.51 C 40.704 65.164 40.515 67.84 40.802 70.464 C 40.932 71.655 42.005 72.743 42.651 73.878 C 43.352 72.777 44.584 71.711 44.657 70.569 C 44.909 66.674 44.754 62.753 44.754 59.045 C 45.987 58.665 46.521 58.62 46.912 58.359 C 48.102 57.56 49.238 56.679 50.394 55.83 C 49.149 55.236 47.934 54.221 46.656 54.134 C 43.537 53.918 40.375 53.989 37.26 54.269 C 36.448 54.343 35.743 55.606 34.99 56.324 C 35.671 56.934 36.362 57.534 37.03 58.159 C 38.256 59.302 39.469 60.46 40.698 62.51 Z" style=""/>
  <path fill="#979797" opacity="1.000000" stroke="none" d="M 1 105.325 C 5.851 104.836 10.703 104.832 16.432 104.949 C 20.923 104.993 24.534 104.914 28.146 104.836 C 49.142 104.838 70.138 104.928 91.133 104.785 C 96.809 104.746 100.907 105.614 103.062 112.31 C 104.303 116.16 108.432 119.02 110.918 122.724 C 79.674 123.128 48.772 123.207 17.871 123.073 C 12.12 123.048 6.78 121.407 3.519 115.691 C 3.14 115.025 1.861 114.905 1 114.532 C 1 111.624 1 108.717 1 105.325 Z" style=""/>
  <path fill="#808080" opacity="1.000000" stroke="none" d="M 27.897 104.803 C 23.853 105.342 19.797 105.414 15.292 105.34 C 14.875 81.293 14.912 57.393 14.942 33.491 C 14.952 25.5 14.943 25.499 24.529 25.535 C 25.309 25.538 26.088 25.561 27.396 25.666 C 27.91 51.95 27.898 78.142 27.897 104.803 Z" style=""/>
  <path fill="#858585" opacity="1.000000" stroke="none" d="M 84.796 79.442 C 88.003 79.476 90.746 79.237 93.398 79.668 C 94.559 79.857 95.537 81.414 96.598 82.349 C 95.61 83.176 94.631 84.71 93.634 84.723 C 80.952 84.884 68.267 84.882 55.585 84.716 C 54.6 84.704 53.632 83.147 52.655 82.309 C 53.898 81.37 55.124 79.65 56.388 79.616 C 65.685 79.369 74.991 79.459 84.796 79.442 Z" style="transform-box: fill-box; transform-origin: 50% 50%;" transform="matrix(0.999995, -0.003117, 0.003117, 0.999995, 0, 0)"/>
  <path fill="#FCFCFC" opacity="1.000000" stroke="none" d="M 85.431 72.548 C 84.157 73.075 83.242 73.508 82.279 73.747 C 75.957 75.32 74.99 74.568 74.975 68.118 C 74.966 64.124 74.789 60.115 75.101 56.145 C 75.196 54.933 76.53 52.975 77.525 52.819 C 82.422 52.05 90.102 58.059 90.839 62.955 C 91.494 67.304 89.461 70.307 85.431 72.548 M 84.58 59.932 C 82.939 59.108 81.297 58.284 79.392 57.327 C 79.392 61.954 79.392 65.8 79.392 69.678 C 86.683 68.862 88.351 65.981 84.58 59.932 Z" style="transform-box: fill-box; transform-origin: 50% 50%;" transform="matrix(0.999995, -0.003117, 0.003117, 0.999995, 0, 0)"/>
  <path fill="#F9F9F9" opacity="1.000000" stroke="none" d="M 64.16 56.999 C 67.703 61.809 67.954 66.525 64.829 71.158 C 61.873 75.541 56.256 75.503 53.074 71.282 C 50.031 67.245 50.267 60.488 53.743 57.011 C 56.964 53.79 60.431 53.756 64.16 56.999 M 60.836 69.532 C 61.204 66.652 61.816 63.762 61.711 60.898 C 61.693 60.402 58.642 60.016 56.993 59.579 C 56.407 61.861 55.071 64.297 55.495 66.372 C 55.79 67.812 58.508 68.757 60.836 69.532 Z" style="transform-box: fill-box; transform-origin: 50% 50%;" transform="matrix(0.999995, -0.003117, 0.003117, 0.999995, 0, 0)"/>
  <path fill="#F9F9F9" opacity="1.000000" stroke="none" d="M 106.159 55.267 C 111.184 60.177 112.036 65.85 108.743 70.643 C 105.606 75.208 99.869 75.27 96.681 70.772 C 94.024 67.026 93.986 61.34 96.677 57.656 C 99.036 54.425 102.105 53.482 106.159 55.267 M 104.557 59.191 C 102.842 59.832 99.785 60.288 99.667 61.148 C 99.322 63.656 99.979 66.373 100.675 68.889 C 100.805 69.359 103.802 69.741 104.003 69.369 C 105.096 67.342 105.947 65.111 106.413 62.854 C 106.6 61.948 105.591 60.796 104.557 59.191 Z"/>
  <path fill="#5F5F5F" opacity="1.000000" stroke="none" d="&#10;M59.135006,22.083523 &#10;&#9;C59.135006,22.083523 59.091618,22.471310 58.796600,22.782204 &#10;&#9;C57.622898,24.021873 56.744209,24.950653 55.865524,25.879433 &#10;&#9;C51.807770,28.171341 47.723335,27.594389 43.244843,25.937557 &#10;&#9;C37.510704,18.148712 38.179028,13.013491 45.468315,8.285336 &#10;&#9;C44.302536,15.901151 46.884327,20.874683 52.777843,21.837376 &#10;&#9;C54.854881,22.176655 57.013588,22.015945 59.135006,22.083523 &#10;z"/>
  <path fill="#858585" opacity="1.000000" stroke="none" d="M 87.012 90.547 C 86.4 92.222 85.592 94.57 84.727 94.6 C 76.371 94.89 68.002 94.889 59.643 94.67 C 58.689 94.645 57.769 92.773 56.833 91.758 C 57.668 90.852 58.513 89.146 59.337 89.161 C 68.491 89.335 77.639 89.776 87.012 90.547 Z" style="transform-box: fill-box; transform-origin: 50% 50%;" transform="matrix(0.999995, -0.003117, 0.003117, 0.999995, 0, 0)"/>
  <path fill="#F8F8F8" opacity="1.000000" stroke="none" d="M 40.916 62.423 C 39.687 60.822 38.468 59.665 37.237 58.521 C 36.566 57.897 35.872 57.297 35.188 56.686 C 35.945 55.969 36.653 54.705 37.468 54.632 C 40.596 54.352 43.771 54.28 46.904 54.496 C 48.188 54.584 49.409 55.599 50.659 56.192 C 49.497 57.041 48.357 57.923 47.162 58.721 C 46.769 58.983 46.232 59.028 44.994 59.407 C 44.994 63.115 45.15 67.037 44.897 70.932 C 44.823 72.074 43.586 73.139 42.882 74.24 C 42.234 73.105 41.156 72.017 41.025 70.826 C 40.737 68.202 40.927 65.526 40.916 62.423 Z" style="transform-box: fill-box; transform-origin: 50% 50%;" transform="matrix(0.999995, -0.003117, 0.003117, 0.999995, 0, 0)"/>
  <path fill="#C5BDC7" opacity="1.000000" stroke="none" d="M 55.378 25.567 C 56.124 24.248 57.066 23.243 58.328 22.114 C 59.813 23.103 60.974 24.217 62.448 25.489 C 64.984 28.354 67.31 30.987 69.38 33.811 C 70.103 34.796 70.194 36.25 70.575 37.489 C 69.17 37.301 67.302 37.63 66.442 36.84 C 62.661 33.364 59.17 29.565 55.378 25.567 Z" style="transform-box: fill-box; transform-origin: 50% 50%;" transform="matrix(0.999995, -0.003117, 0.003117, 0.999995, 0, 0)"/>
  <path fill="#808080" opacity="1.000000" stroke="none" d="M 59.308 22.251 C 56.815 22.452 54.612 22.618 52.493 22.268 C 46.479 21.277 43.844 16.157 45.394 8.263 C 55.437 4.859 60.487 9.896 59.308 22.251 Z" style=""/>
  <path fill="#A1A1A1" opacity="1.000000" stroke="none" d="M 84.842 60.189 C 88.351 65.98 86.683 68.862 79.392 69.678 C 79.392 65.8 79.392 61.954 79.392 57.327 C 81.297 58.284 82.938 59.108 84.842 60.189 Z" style="transform-box: fill-box; transform-origin: 50% 50%;" transform="matrix(0.999995, -0.003117, 0.003117, 0.999995, 0, 0)"/>
  <path fill="#A1A1A1" opacity="1.000000" stroke="none" d="M 60.49 69.729 C 58.509 68.758 55.79 67.814 55.496 66.373 C 55.071 64.298 56.408 61.862 56.993 59.58 C 58.643 60.017 61.693 60.403 61.711 60.9 C 61.817 63.763 61.205 66.653 60.49 69.729 Z" style="transform-box: fill-box; transform-origin: 50% 50%;" transform="matrix(0.999995, -0.003117, 0.003117, 0.999995, 0, 0)"/>
  <path fill="#A0A0A0" opacity="1.000000" stroke="none" d="&#10;M105.132874,59.764324 &#10;&#9;C105.882095,61.086567 106.890602,62.239025 106.703728,63.144875 &#10;&#9;C106.238068,65.402054 105.387199,67.632683 104.293442,69.659439 &#10;&#9;C104.092476,70.031822 101.095551,69.649925 100.965569,69.180092 &#10;&#9;C100.269547,66.664177 99.612587,63.946754 99.957504,61.438606 &#10;&#9;C100.075783,60.578583 103.133354,60.122772 105.132874,59.764324 &#10;z"/>
</svg>