<?xml version="1.0" encoding="UTF-8"?>
<svg version="1.1" viewBox="0 0 2048 2048" width="1280" height="1280" xmlns="http://www.w3.org/2000/svg">
<path transform="translate(766,103)" d="m0 0h33l24 4 21 7 21 11 14 10 14 12 12 13 11 15 10 18 7 16 6 20 2 12 1 11v21l-4 25-8 26-7 23-1 7 3 6 12 12 8 7 8 8 8 7 10 8 8 3 12 1 292 1h719l19 1 13 5 11 8 3 2v1306l-12 36-10 25-14 27-11 16-14 19-9 11-17 17-14 11-18 12-19 11-19 9-19 7-25 6-24 4-31 3-58 3-97 1h-119l-210-1h-575l-211 1-172 2h-41l-42-1-13-1-15-3-23-3-25-5-32-10-20-9-20-11-17-12-16-13-15-14-13-14-15-20-10-15-12-22-11-26-9-26-1-2v-39l11-8 6-4 10-2h222v-983l1-207 1-56 2-16 4-10 8-7 11-5 6-1 33-1h47l79 2 55 1 187 1 15 2 9 2-4-4-13-9-10-9-8-7-9-9-9-11-10-14-8-14-8-20-4-14-3-25v-27l3-23 5-19 7-16 10-17 6-8 10-13 12-12 15-11 18-10 14-6 20-6zm100 299-10 1-1 4 6 2h15l4-1v-5l-2-1z" fill="#9B9C9C"/>
<path transform="translate(315,403)" d="m0 0h47l46 1 5 1v491l-1 407-1 134v58l-1 156-1 36-1 1-75-1h-47l-28-1-8-2-1-513v-465l1-207 1-56 2-16 4-10 8-7 11-5 6-1z" fill="#828281"/>
<path transform="translate(766,103)" d="m0 0h33l24 4 21 7 21 11 14 10 14 12 12 13 11 15 10 18 7 16 6 20 2 12 1 11v21l-4 25-8 26-7 23-1 6-8 7-8 8-11 9-8 7-18 13-11 6-4 1v2l-21 10-20 6-17-2h-23l-6 2-13-1-30-9-20-7-10-4-11-9-13-12-7-7-9-11-10-14-8-14-8-20-4-14-3-25v-27l3-23 5-19 7-16 10-17 6-8 10-13 12-12 15-11 18-10 14-6 20-6z" fill="#828281"/>
<path transform="translate(1205,827)" d="m0 0h16l25 4 24 6 29 10 24 11 21 11 22 14 11 8 13 11 11 11 11 15 9 15 9 20 5 16 2 16v35l-3 19-7 21-7 13-8 12-7 9-11 12-14 11-15 10-15 8-20 8-27 9-32 7-29 4-25 1-15-2-9-4-6-6-2-6-1-9-1-28v-208l1-48 1-17 2-8 5-6 8-4z" fill="#FEFEFE"/>
<path transform="translate(1617,858)" d="m0 0h27l14 2 16 5 14 7 13 9 10 9 8 8 11 15 9 15 7 14 7 20 4 20 1 9v40l-3 20-5 19-6 16-8 16-10 17-12 16-14 14-13 9-15 8-17 5-14 2h-23l-16-3-17-6-16-9-11-9-14-14-12-17-9-16-6-13-5-15-5-21-3-20v-31l3-22 6-21 9-22 10-18 10-13 12-13 12-11 10-7 16-8 13-4z" fill="#FEFEFE"/>
<path transform="translate(912,859)" d="m0 0h29l20 4 13 5 15 8 13 10 5 4 7 8 11 14 10 17 10 25 5 17 3 24v37l-3 21-4 17-6 17-12 23-8 12-9 12-17 17-16 10-12 6-20 5-8 1h-29l-17-4-16-7-12-7-13-11-10-10-11-15-9-16-7-15-6-18-5-23-2-14-1-14v-14l3-28 5-19 10-25 11-19 11-14 12-13 10-8 14-9 17-7 12-3z" fill="#FEFEFE"/>
<path transform="translate(1163,1274)" d="m0 0h193l41 1h20l27 1 12 1 44 1 26 1 4 4-1 35-2 5-2 2-6 1-25 1-55 1-28 1h-18l-40 1h-96l-9 1h-40l-5-1-8 1h-23l-15 1h-25l-10-1h-84l-5-1h-22l-34-1h-9l-4-1h-77l-42-1-4-2-1-44 1-1 13-1 44-1h28l191-3z" fill="#828281"/>
<path transform="translate(691,134)" d="m0 0 7 1 5 13 1 5-1 18v31l5 25 5 15 9 19 9 15 11 14 6 7 8 7 6 5v2l5 2 13 9 11 7 10 4 23 5 2 1 23 3h41l22-1 11-1-1 13-8 7-8 8-11 9-8 7-18 13-11 6-4 1v2l-21 10-20 6-17-2h-23l-6 2-13-1-30-9-20-7-10-4-11-9-13-12-7-7-9-11-10-14-8-14-8-20-4-14-3-25v-27h2l1-5 2-3 1-6 1-10 2-8 3-5h2l3-9h2l2-7h2v-4h2l1-9 3-5 6-8h2l2-4 3-5 6-5 6-7h2l2-4 7-6z" fill="#616262"/>
<path transform="translate(640,857)" d="m0 0h131l10 1 8 6 4 6 1 3v15l-2 15-3 10-13 2-68 4-5 1-1 94-1 142-1 8-7 3-13 2-19 1h-11l-9-3-2-4-1-33-1-151-1-59-5-1-58-2-19-2-7-3-1-4v-40l1-6 5-2 6-1 29-1z" fill="#FEFEFE"/>
<path transform="translate(1248,896)" d="m0 0 9 2 24 10 16 8 17 9 12 8 12 9 14 14 10 14 8 15 5 17 1 8v12l-3 15-8 16-9 12-10 10-15 10-21 10-23 7-29 7-11 1-1-39v-150l1-24z" fill="#9B9C9C"/>
<path transform="translate(1131,1442)" d="m0 0h92l54 1 39 1 51 1 1 1v38l-4 3-14 1h-26l-25 1-31 1h-71l-56-2h-24l-4-1h-38l-9-1h-25l-20-1h-56l-18-1-4-1-22 1-11-2-5-1-1-1-1-19 1-13 9-1 101-1 81-3z" fill="#828281"/>
<path transform="translate(914,921)" d="m0 0h22l14 5 11 8 9 10 9 15 6 14 4 14 2 15v27l-3 17-6 18-8 16-8 10-6 7-13 10-9 4-4 1h-10l-9-2-14-7-13-11-10-11-9-15-6-18-2-10-1-15 2-23 4-20 7-19 7-13 10-13 8-7 12-6z" fill="#9B9C9C"/>
<path transform="translate(1623,921)" d="m0 0h16l13 4 11 7 5 4 9 11 7 12 6 15 4 16 2 19v15l-3 19-4 15-6 13-6 11-9 11-7 7-10 7-11 5h-11l-12-3-14-8-13-12-7-8-8-13-6-15-3-14-1-7v-18l4-26 5-17 8-17 10-14 7-8 11-7z" fill="#9B9C9C"/>
<path transform="translate(1261,833)" d="m0 0 11 2 20 6 16 6 27 13 10 6 11 7 1 2 7 3 4 3v2l5 1 11 9 10 9 8 9 9 12v2l-3-1-10-13-12-12-14-11-17-11-15-9-23-12-23-10-31-10v-2z" fill="#888887"/>
<path transform="translate(697,402)" d="m0 0 10 3 33 11 14 4 14 1 6-2h22l17 2 20-6 6-3 3 1-11 5-19 6-13 2h-28l-22-4-29-9-19-7z" fill="#828281"/>
<path transform="translate(315,403)" d="m0 0h47l46 1-4 2h-49l-6 1-53 1-16 1-12 2-3-1 11-5 6-1z" fill="#9C9D9D"/>
<path transform="translate(1656,858)" d="m0 0 10 1 11 4 12 6 13 9 13 11 8 10 10 14 6 10 7 14 1 5h-2l-8-16-10-16-11-14-12-12-13-9-14-8-11-4v-2l-10-2z" fill="#868686"/>
<path transform="translate(1347,868)" d="m0 0 9 5 1 2 7 3 4 3v2l5 1 11 9 10 9 8 9 9 12v2l-3-1-10-13-12-12-14-11-17-11-8-5z" fill="#838483"/>
<path transform="translate(991,876)" d="m0 0 5 2 9 7v2h2v2l4 2 11 13 7 11 4 7v2h-2l-9-15-11-13-4-4v-2l-4-2-11-9z" fill="#8A8B8A"/>
<path transform="translate(1656,858)" d="m0 0 10 1 11 4 12 6 6 4-4 2-14-8-11-4v-2l-10-2z" fill="#888988"/>
<path transform="translate(1384,894)" d="m0 0 5 3 10 10 7 9 5 7v2l-3-1-10-13-16-16z" fill="#898A89"/>
<path transform="translate(1347,868)" d="m0 0 9 5 1 2 5 2v3l-7-3-8-5z" fill="#808080"/>
<path transform="translate(991,876)" d="m0 0 5 2 9 7v2h2v2l-4-1-11-9z" fill="#888887"/>
<path transform="translate(1736,922)" d="m0 0 4 2 7 16v2h-2l-8-16z" fill="#8B8B8A"/>
<path transform="translate(1020,905)" d="m0 0 4 2 8 13 1 4h-2l-9-15z" fill="#8D8E8D"/>
<path transform="translate(1606,857)" d="m0 0h7l-4 2h-4v2l-7 2h-6l4-3z" fill="#888887"/>
</svg>
