<?xml version="1.0" encoding="UTF-8"?>
<svg version="1.1" xmlns="http://www.w3.org/2000/svg" width="128" height="128">
<path d="M0 0 C5.26077229 2.68406749 11.29648786 7.59297572 14 13 C14.34375 15.1015625 14.34375 15.1015625 14.5 17.625 C14.60828125 18.85089844 14.60828125 18.85089844 14.71875 20.1015625 C12.45440337 29.23278643 0.28971782 37.87437831 -6.265625 44.43359375 C-7.5488798 45.72006671 -8.83206136 47.00661274 -10.11517334 48.29322815 C-12.78953326 50.97354277 -15.46591819 53.65181631 -18.14355469 56.32885742 C-21.57740672 59.76260716 -25.00428793 63.20322591 -28.42950821 66.64558315 C-31.07002476 69.29719303 -33.71504816 71.94427105 -36.36138153 74.59007454 C-37.62768884 75.85756271 -38.89237307 77.12667459 -40.15540314 78.39742851 C-41.91433763 80.16612394 -43.67945018 81.92841455 -45.44628906 83.68920898 C-45.96684875 84.21538818 -46.48740845 84.74156738 -47.02374268 85.28369141 C-50.45498577 88.68507672 -52.49076274 89.88820465 -57.375 90.25 C-64.47239005 89.76052482 -68.47865144 84.80445948 -73.234375 79.99609375 C-73.91300598 79.31700455 -74.59163696 78.63791534 -75.29083252 77.93824768 C-76.71856333 76.507505 -78.14387221 75.07434186 -79.56689453 73.63891602 C-81.75108276 71.43640815 -83.94323081 69.24207065 -86.13671875 67.04882812 C-87.52391149 65.65672215 -88.91064639 64.26415978 -90.296875 62.87109375 C-90.9541156 62.21274033 -91.6113562 61.5543869 -92.28851318 60.87608337 C-92.8929425 60.2652742 -93.49737183 59.65446503 -94.12011719 59.02514648 C-94.92023224 58.21931374 -94.92023224 58.21931374 -95.73651123 57.39720154 C-98.6264903 54.20138112 -98.51036729 50.80983363 -98.48046875 46.671875 C-97.61857145 41.87888515 -94.48755927 39.17918561 -91 36 C-90.21625 35.195625 -89.4325 34.39125 -88.625 33.5625 C-84.92569736 31.36053414 -81.29646968 30.45785872 -77 31 C-71.54080498 33.59421955 -67.70508956 36.90469903 -63.5625 41.25 C-63.02173828 41.80429687 -62.48097656 42.35859375 -61.92382812 42.9296875 C-60.60881791 44.27960949 -59.30337464 45.63884028 -58 47 C-52.31491553 42.28080727 -47.11116231 37.2122217 -41.92578125 31.953125 C-40.18958595 30.2042952 -38.45325381 28.45560126 -36.71679688 26.70703125 C-34.00254692 23.96787992 -31.28992724 21.22715096 -28.57983398 18.48388672 C-25.94951148 15.82343425 -23.31306511 13.16917429 -20.67578125 10.515625 C-19.86530838 9.6916925 -19.05483551 8.86776001 -18.21980286 8.01885986 C-17.4618895 7.25756775 -16.70397614 6.49627563 -15.9230957 5.71191406 C-15.26026077 5.0416217 -14.59742584 4.37132935 -13.914505 3.6807251 C-9.69589262 -0.02275319 -5.54550741 -0.85067007 0 0 Z M-20.59939575 23.48276615 C-22.33855233 25.22534751 -24.07557203 26.97004125 -25.8125 28.71484375 C-27.03395984 29.93817223 -28.25564329 31.16127748 -29.47753906 32.38417053 C-32.6689961 35.57941761 -35.85743667 38.77765786 -39.04522705 41.9765625 C-42.30825862 45.24988433 -45.57417744 48.52032274 -48.83984375 51.79101562 C-55.22936797 58.19121509 -61.61570451 64.59458507 -68 71 C-67.06409496 72.1055189 -66.12620142 73.20935453 -65.1875 74.3125 C-64.66542969 74.92738281 -64.14335938 75.54226562 -63.60546875 76.17578125 C-62.81076172 77.07876953 -62.81076172 77.07876953 -62 78 C-61.52175781 78.59167969 -61.04351562 79.18335937 -60.55078125 79.79296875 C-59.08885958 81.17960336 -59.08885958 81.17960336 -57.18611145 81.03387451 C-53.89310274 79.47651669 -51.56320507 77.00529745 -49.0222168 74.45800781 C-48.43481216 73.88067902 -47.84740753 73.30335022 -47.24220276 72.70852661 C-45.30317548 70.79799442 -43.37566071 68.8763414 -41.44921875 66.953125 C-40.10754857 65.62109255 -38.76565195 64.28928815 -37.42353821 62.95770264 C-34.6131639 60.16529201 -31.8090624 57.36674736 -29.00854492 54.56445312 C-25.41428796 50.9698908 -21.79981575 47.39642937 -18.17970562 43.82793045 C-15.40286971 41.08439822 -12.63972392 38.3273916 -9.88028908 35.5663681 C-8.55299134 34.24261718 -7.22081099 32.92374368 -5.88376427 31.60984039 C-4.01825832 29.77363353 -2.17261804 27.91950498 -0.33081055 26.05957031 C0.22754486 25.51807343 0.78590027 24.97657654 1.36117554 24.41867065 C3.07104645 22.73480734 3.07104645 22.73480734 5 20 C4.88330143 16.21478209 3.82245063 14.28429949 1.125 11.6875 C0.61195312 11.17574219 0.09890625 10.66398437 -0.4296875 10.13671875 C-6.7459417 5.56450489 -16.41008015 19.30136872 -20.59939575 23.48276615 Z M-85.125 43.5 C-85.84945312 44.1496875 -86.57390625 44.799375 -87.3203125 45.46875 C-87.87460938 45.9740625 -88.42890625 46.479375 -89 47 C-88.75898603 52.56427915 -85.23981113 55.21853469 -81.4375 58.8125 C-80.82197266 59.40998047 -80.20644531 60.00746094 -79.57226562 60.62304688 C-78.05706751 62.0912621 -76.52969562 63.54689553 -75 65 C-74.49186768 64.56856689 -73.98373535 64.13713379 -73.46020508 63.69262695 C-72.24820964 62.66357422 -71.03621419 61.63452148 -69.82421875 60.60546875 C-68.14575321 59.12827531 -66.56117966 57.59960869 -65 56 C-66.66463038 51.71357676 -69.79075837 48.91382783 -73 45.75 C-73.81984375 44.91855469 -73.81984375 44.91855469 -74.65625 44.0703125 C-79.3453938 39.4041547 -80.28299524 39.12657634 -85.125 43.5 Z " fill="#4E9097" transform="translate(106,19)"/>
</svg>
